<svg width="48" height="49" viewBox="0 0 48 49" fill="none" xmlns="http://www.w3.org/2000/svg">
<path d="M32.5 4.71875C29.7143 4.71875 27.4198 6.97698 27.4198 9.71875C27.4198 12.4605 29.7143 14.7188 32.5 14.7188C35.2875 14.7188 37.5802 12.4585 37.5802 9.71875C37.5802 6.97899 35.2875 4.71875 32.5 4.71875ZM32.5 8.05208C33.4583 8.05208 34.1934 8.77851 34.1934 9.71875C34.1934 10.659 33.4583 11.3854 32.5 11.3854C31.5467 11.3854 30.8066 10.657 30.8066 9.71875C30.8066 8.78052 31.5467 8.05208 32.5 8.05208ZM18.9661 11.3854C18.7111 11.3888 18.4601 11.4489 18.2319 11.5612L10.6117 15.3112L12.1198 18.293L18.9595 14.9271L22.9549 17.0169L16.0556 31.7109L7 34.8099L8.11128 37.9609L17.8482 34.6276C18.0631 34.5534 18.2605 34.4373 18.4287 34.2863C18.5969 34.1353 18.7325 33.9524 18.8272 33.7487L25.9447 18.5794L30.8397 21.138V26.3854C30.8397 26.8274 31.0182 27.2513 31.3357 27.5639C31.6533 27.8764 32.084 28.052 32.5331 28.0521H41V24.7188H34.2265V20.1354C34.2263 19.8329 34.1425 19.5361 33.984 19.2769C33.8255 19.0177 33.5983 18.8059 33.3268 18.6641L19.7798 11.5807C19.5295 11.4496 19.2497 11.3825 18.9661 11.3854ZM25.7595 28.0521C25.3104 28.0521 24.8797 28.2277 24.5621 28.5402C24.2446 28.8528 24.0661 29.2767 24.0661 29.7188C24.0666 29.9764 24.1277 30.2305 24.2447 30.4609C24.2469 30.4653 24.2491 30.4696 24.2514 30.474L27.4529 36.776V44.7188H30.8397V36.3854C30.8392 36.1278 30.7781 35.8737 30.6611 35.6432L27.3405 29.1133C27.3205 29.0667 27.2985 29.0211 27.2743 28.9766C27.1341 28.6991 26.9181 28.4656 26.6505 28.3023C26.3829 28.139 26.0744 28.0523 25.7595 28.0521Z" fill="white"/>
</svg>
