<svg width="27" height="23" viewBox="0 0 27 23">
<path d="M13.1093 0C12.1591 0 11.2089 0.451171 10.6689 1.35351L0.380821 18.5459C-0.71293 20.3643 0.688438 22.7363 2.81442 22.7363H23.3974C25.5302 22.7363 26.9316 20.3643 25.8447 18.5459L15.5498 1.35351C15.0097 0.451171 14.0595 0 13.1093 0ZM13.1093 1.72266C13.4716 1.72266 13.8339 1.90039 14.0527 2.25586L24.3408 19.4414C24.7714 20.1592 24.2929 20.9863 23.3974 20.9863H2.81442C1.92574 20.9863 1.44723 20.1592 1.87789 19.4414L12.166 2.25586C12.3847 1.90039 12.747 1.72266 13.1093 1.72266ZM12.2207 6.98633V15.7363H13.9707V6.98633H12.2207ZM12.2207 17.4863V19.2363H13.9707V17.4863H12.2207Z"/>
</svg>
