<svg width="19" height="19" viewBox="0 0 19 19" >
<path d="M14.0841 0.99721C13.5206 1.02137 12.9325 1.09408 12.3321 1.21108C9.93033 1.67905 7.27345 2.93067 5.10163 5.1017C2.9297 7.27285 1.67606 9.92997 1.20808 12.3322C0.740096 14.7344 0.976078 16.9322 2.2364 18.1915C2.8664 18.821 3.74137 19.0709 4.59187 18.9796C5.44236 18.8883 6.29724 18.5195 7.19343 17.9806C8.98581 16.9029 10.9618 15.1087 13.0352 13.0353C15.1087 10.9619 16.9029 8.98312 17.9805 7.19057C18.5194 6.2943 18.8883 5.44237 18.9796 4.59194C19.0709 3.7415 18.8211 2.86613 18.1915 2.23647C17.5615 1.60697 16.6962 1.23406 15.6895 1.07631C15.1862 0.997438 14.6475 0.973048 14.0841 0.99721ZM14.1251 2.51479C14.5969 2.50356 15.0338 2.53413 15.4259 2.59682C16.2099 2.7222 16.8114 2.97776 17.1309 3.29701C17.45 3.6161 17.5432 3.92013 17.4884 4.4308C17.4335 4.94148 17.1675 5.63315 16.6944 6.42006C15.7482 7.99389 14.0143 9.93517 11.9747 11.9747C9.93507 14.0144 7.99361 15.7483 6.41999 16.6945C5.63318 17.1676 4.94149 17.4336 4.43074 17.4884C3.91998 17.5432 3.61645 17.4502 3.29695 17.131C2.65827 16.4928 2.27069 14.7291 2.68171 12.6193C2.82151 11.9017 3.07823 11.149 3.38777 10.3927C4.90552 10.8114 5.8487 11.383 5.8487 11.383C5.93176 11.4409 6.02569 11.4813 6.12481 11.502C6.22394 11.5226 6.32621 11.5229 6.42548 11.503C6.52474 11.483 6.61893 11.4432 6.70239 11.3858C6.78584 11.3285 6.85682 11.2549 6.91105 11.1694C6.96528 11.0839 7.00163 10.9883 7.01793 10.8883C7.03423 10.7884 7.03012 10.6862 7.00586 10.5879C6.98161 10.4896 6.9377 10.3972 6.87679 10.3164C6.81587 10.2355 6.73922 10.1678 6.65144 10.1173C6.65144 10.1173 5.62236 9.49742 4.03523 9.02162C4.39028 8.38144 4.79633 7.75083 5.28327 7.14955C7.44392 7.51864 8.8487 8.38295 8.8487 8.38295C8.93177 8.44085 9.02569 8.48133 9.12481 8.50196C9.22394 8.52259 9.32621 8.52294 9.42548 8.50298C9.52474 8.48302 9.61893 8.44318 9.70239 8.38584C9.78584 8.32851 9.85682 8.25487 9.91105 8.16937C9.96528 8.08387 10.0016 7.98827 10.0179 7.88834C10.0342 7.78841 10.0301 7.68622 10.0059 7.58792C9.98161 7.48962 9.9377 7.39725 9.87679 7.31637C9.81588 7.23549 9.73922 7.16779 9.65144 7.11733C9.65144 7.11733 8.39125 6.361 6.4698 5.87807C7.18968 5.20528 7.96829 4.66192 8.76374 4.19643C10.5988 4.57363 11.8341 5.37416 11.8341 5.37416C11.916 5.43064 12.0083 5.47026 12.1057 5.49071C12.203 5.51117 12.3035 5.51205 12.4012 5.4933C12.4989 5.47455 12.5919 5.43656 12.6748 5.38152C12.7577 5.32648 12.8288 5.25551 12.884 5.17273C12.9391 5.08995 12.9773 4.99701 12.9962 4.89934C13.0152 4.80167 13.0145 4.7012 12.9942 4.6038C12.9739 4.5064 12.9345 4.414 12.8781 4.33199C12.8218 4.24998 12.7497 4.18 12.6661 4.12612C12.6661 4.12612 11.92 3.6578 10.7706 3.22377C11.3988 2.98982 12.0214 2.79827 12.6192 2.68178C13.1466 2.57902 13.6533 2.52601 14.1251 2.51479Z" />
</svg>
