<svg width="16" height="20" viewBox="0 0 16 20" fill="none" xmlns="http://www.w3.org/2000/svg">
<path d="M8 0.5C6.04597 0.5 4.27374 0.842964 2.92285 1.44336C2.24741 1.74356 1.67392 2.10767 1.23828 2.56543C0.802647 3.02319 0.5 3.60779 0.5 4.25C0.5 4.89221 0.802647 5.47681 1.23828 5.93457C1.66799 6.3861 2.23297 6.74709 2.89648 7.04492C1.47298 7.41411 0.5 7.97675 0.5 8.75C0.5 8.81444 0.516098 8.87598 0.529297 8.9375H0.5V17C0.5 17.6147 0.871488 18.1135 1.31738 18.4648C1.76328 18.8162 2.32518 19.081 2.99023 19.3027C4.32033 19.7462 6.06864 20 8 20C9.93136 20 11.6797 19.7462 13.0098 19.3027C13.6748 19.081 14.2367 18.8162 14.6826 18.4648C15.1285 18.1135 15.5 17.6147 15.5 17V8.9375H15.4707C15.4839 8.87598 15.5 8.81444 15.5 8.75C15.5 7.97675 14.527 7.41411 13.1035 7.04492C13.767 6.74709 14.332 6.3861 14.7617 5.93457C15.1974 5.47681 15.5 4.89221 15.5 4.25C15.5 3.60779 15.1974 3.02319 14.7617 2.56543C14.3261 2.10767 13.7526 1.74356 13.0771 1.44336C11.7263 0.842964 9.95403 0.5 8 0.5ZM8 2C9.77389 2 11.3756 2.32906 12.4678 2.81445C13.0138 3.05715 13.4273 3.33954 13.6748 3.59961C13.9223 3.85968 14 4.06378 14 4.25C14 4.43622 13.9223 4.64032 13.6748 4.90039C13.4273 5.16046 13.0138 5.44285 12.4678 5.68555C11.3756 6.17094 9.77389 6.5 8 6.5C6.22611 6.5 4.62436 6.17094 3.53223 5.68555C2.98616 5.44285 2.5727 5.16046 2.3252 4.90039C2.07769 4.64032 2 4.43622 2 4.25C2 4.06378 2.07769 3.85968 2.3252 3.59961C2.5727 3.33954 2.98616 3.05715 3.53223 2.81445C4.62436 2.32906 6.22611 2 8 2ZM2 10.168C3.46165 10.7323 5.77924 11 8 11C10.2208 11 12.5383 10.7323 14 10.168V17C14 17.0063 13.9911 17.1001 13.7539 17.2871C13.5166 17.4741 13.0917 17.6934 12.5352 17.8789C11.4221 18.25 9.79614 18.5 8 18.5C6.20386 18.5 4.57787 18.25 3.46484 17.8789C2.90833 17.6934 2.4834 17.4741 2.24609 17.2871C2.00879 17.1001 2 17.0063 2 17V10.168Z" fill="#1F74CA"/>
</svg>
