<svg width="22" height="26" viewBox="0 0 22 26">
<path d="M4.625 0.25V10.875H3.5625C2.96438 10.875 2.5 10.4106 2.5 9.8125V0.266602H0.375V9.8125C0.375 11.5604 1.81462 13 3.5625 13H4.625V25.75H6.75V13H7.8125C9.56038 13 11 11.5604 11 9.8125V0.266602H8.875V9.8125C8.875 10.4106 8.41062 10.875 7.8125 10.875H6.75V0.25H4.625ZM15.25 0.25V25.75H17.375V17.25H21.625V5.5625C21.625 5.5625 21.6397 4.28028 20.9817 2.96436C20.3237 1.64843 18.7917 0.25 16.3125 0.25H15.25ZM17.375 2.63647C18.2306 2.89372 18.7896 3.32823 19.0808 3.91065C19.4853 4.71972 19.5 5.5625 19.5 5.5625V15.125H17.375V2.63647Z"/>
</svg>
