<svg width="22" height="18" viewBox="0 0 22 18">
<path d="M2.75 0.125C1.51367 0.125 0.5 1.18091 0.5 2.46875V14.9688C0.5 16.2566 1.51367 17.3125 2.75 17.3125H19.25C20.4863 17.3125 21.5 16.2566 21.5 14.9688V2.46875C21.5 1.18091 20.4863 0.125 19.25 0.125H2.75ZM2.75 1.6875H19.25C19.3027 1.6875 19.3438 1.70581 19.3906 1.71802L11 7.7666L2.60938 1.71802C2.65625 1.70581 2.69727 1.6875 2.75 1.6875ZM2 3.17676L11 9.6709L20 3.17676V14.9688C20 15.4082 19.6719 15.75 19.25 15.75H2.75C2.32812 15.75 2 15.4082 2 14.9688V3.17676Z" />
</svg>
