<svg width="48" height="48" viewBox="0 0 48 48">
<path d="M14.418 4.00249C13.9141 4.03764 13.457 4.31889 13.2109 4.75249C12.9648 5.1978 12.9414 5.72514 13.1641 6.18217L17.3711 14.8775C17.4297 15.0181 17.5117 15.147 17.6172 15.2525L13.6563 22.0259H5.52344C4.98438 22.0142 4.48047 22.3072 4.21094 22.7642C3.92969 23.233 3.92969 23.8189 4.21094 24.2876C4.48047 24.7447 4.98438 25.0376 5.52344 25.0259H13.6563L18.0391 32.5259L13.2344 40.7759C12.9414 41.233 12.918 41.8189 13.1875 42.2994C13.457 42.7798 13.9609 43.0728 14.5117 43.0728C15.0508 43.0611 15.5547 42.7681 15.8125 42.2759L20.6406 34.0259H29.4063L32.4766 39.2759C32.8867 39.9908 33.8125 40.2251 34.5273 39.815C35.2422 39.3931 35.4883 38.479 35.0664 37.7642L32.0078 32.5259L36.8242 24.2759C37.0938 23.8189 37.0938 23.233 36.8242 22.7759L32.4297 15.2525C32.5352 15.147 32.6172 15.0181 32.6758 14.8775L36.4609 7.02592H41.5234C42.0625 7.03764 42.5664 6.74467 42.8359 6.28764C43.1172 5.81889 43.1172 5.23296 42.8359 4.76421C42.5664 4.30717 42.0625 4.01421 41.5234 4.02592H35.5234C34.9492 4.02592 34.4219 4.35405 34.1641 4.86967L30.2383 13.0259H19.8086L15.8828 4.86967C15.6133 4.30717 15.0391 3.96733 14.418 4.00249ZM20.6406 16.0259H29.4063L33.7891 23.5259L29.4063 31.0259H20.6406L16.2578 23.5259L20.6406 16.0259Z"/>
</svg>
