<svg width="33" height="42" viewBox="0 0 33 42">
<path d="M16.5 0L15.5273 0.832029C15.5273 0.832029 11.6953 4.08984 7.85156 8.68359C4.00781 13.2773 0 19.1836 0 25.1016C0 34.1953 7.40625 41.6016 16.5 41.6016C25.5938 41.6016 33 34.1953 33 25.1016C33 19.1836 28.9922 13.2773 25.1484 8.68359C21.3047 4.08984 17.4727 0.832029 17.4727 0.832029L16.5 0ZM16.5 4.11328C17.2852 4.80469 19.6758 6.80859 22.8516 10.6055C26.5078 14.9766 30 20.625 30 25.1016C30 29.9766 27.4102 34.207 23.543 36.5742C23.8242 35.8008 24 34.9688 24 34.1016C24 31.207 22.3125 28.3359 20.7422 25.9922C19.1836 23.6367 17.625 21.8672 17.625 21.8672L16.5 20.5781L15.375 21.8672C15.375 21.8672 13.8047 23.6602 12.2461 26.0156C10.6875 28.3828 9 31.2422 9 34.1016C9 34.9688 9.17578 35.8008 9.45703 36.5742C5.58984 34.207 3 29.9766 3 25.1016C3 20.625 6.49219 14.9766 10.1484 10.6055C13.3242 6.80859 15.7148 4.80469 16.5 4.11328ZM16.5 25.3359C17.0625 26.0156 17.3789 26.332 18.2578 27.6562C19.6875 29.8125 21 32.5664 21 34.1016C21 36.2812 19.4883 38.0859 17.4375 38.5078C17.1211 38.5312 16.8164 38.6016 16.5 38.6016C16.1836 38.6016 15.8789 38.5312 15.5625 38.5078C13.5117 38.0859 12 36.2812 12 34.1016C12 32.625 13.3125 29.8594 14.7539 27.6797C15.6328 26.3555 15.9492 26.0273 16.5 25.3359Z"/>
</svg>
