<svg width="23" height="19" viewBox="0 0 23 19" >
<path d="M11.5001 0.125C8.92113 0.125 6.81258 2.23354 6.81258 4.8125C6.81258 5.58745 7.10515 6.38087 7.49008 7.25696C7.8142 7.99467 8.22352 8.76188 8.64059 9.5H4.46883C4.31251 9.49984 4.15973 9.54658 4.03025 9.63417C3.90077 9.72176 3.80054 9.84617 3.74252 9.99133L0.617516 17.8038C0.570138 17.9224 0.552558 18.0508 0.566312 18.1778C0.580067 18.3048 0.624737 18.4265 0.696413 18.5322C0.768089 18.6379 0.864584 18.7244 0.977452 18.7842C1.09032 18.8439 1.21612 18.8751 1.34383 18.875H21.6563C21.7841 18.8751 21.9099 18.8439 22.0227 18.7842C22.1356 18.7244 22.2321 18.6379 22.3038 18.5322C22.3754 18.4265 22.4201 18.3048 22.4339 18.1778C22.4476 18.0508 22.43 17.9224 22.3827 17.8038L19.2577 9.99133C19.1996 9.84617 19.0994 9.72176 18.9699 9.63417C18.8404 9.54658 18.6877 9.49984 18.5313 9.5H14.3596C14.7766 8.76188 15.186 7.99467 15.5101 7.25696C15.895 6.38087 16.1876 5.58745 16.1876 4.8125C16.1876 2.23354 14.079 0.125 11.5001 0.125ZM11.5001 1.6875C13.2336 1.6875 14.6251 3.07896 14.6251 4.8125C14.6251 5.11568 14.4294 5.83739 14.0819 6.6283C13.7344 7.4192 13.258 8.3107 12.7788 9.13684C12.1412 10.236 11.8565 10.6272 11.5001 11.1632C11.1437 10.6272 10.859 10.236 10.2214 9.13684C9.7422 8.3107 9.2658 7.4192 8.9183 6.6283C8.5708 5.83739 8.37508 5.11568 8.37508 4.8125C8.37508 3.07896 9.76654 1.6875 11.5001 1.6875ZM11.5001 3.25C11.0857 3.25 10.6883 3.41462 10.3952 3.70765C10.1022 4.00067 9.93758 4.3981 9.93758 4.8125C9.93758 5.2269 10.1022 5.62433 10.3952 5.91735C10.6883 6.21038 11.0857 6.375 11.5001 6.375C11.9145 6.375 12.3119 6.21038 12.6049 5.91735C12.898 5.62433 13.0626 5.2269 13.0626 4.8125C13.0626 4.3981 12.898 4.00067 12.6049 3.70765C12.3119 3.41462 11.9145 3.25 11.5001 3.25ZM4.99679 11.0625H9.57748C10.2647 12.1705 10.8562 13.0675 10.8562 13.0675L11.5001 13.9983L12.144 13.0675C12.144 13.0675 12.7354 12.1705 13.4227 11.0625H18.0034L20.5028 17.3125H2.4974L4.99679 11.0625Z"/>
</svg>
