<svg width="22" height="26" viewBox="0 0 22 26">
<path d="M1.43752 0.25C1.11379 0.25 0.80666 0.399415 0.607441 0.648438C0.408222 0.897462 0.325216 1.22949 0.399922 1.54492L2.93996 12.9585L4.64162 24.8369C4.70803 25.3599 5.15627 25.75 5.68752 25.75H16.3125C16.8438 25.75 17.292 25.3599 17.3667 24.8369L19.0684 12.9336L21.6001 1.54492C21.6748 1.22949 21.5918 0.897462 21.3926 0.648438C21.1934 0.399415 20.8862 0.25 20.5625 0.25H1.43752ZM2.76564 2.375H19.2344L18.7695 4.5H6.75002V6.625H18.2964L16.4287 15.0254C15.8643 17.5654 13.6148 19.375 11 19.375C8.38527 19.375 6.13576 17.5654 5.57131 15.0254L5.04006 12.6348L5.02346 12.5518L2.76564 2.375ZM6.03615 19.6655C7.38918 20.811 9.12404 21.5 11 21.5C12.876 21.5 14.6109 20.811 15.9556 19.6655L15.3911 23.625H6.60891L6.03615 19.6655Z"/>
</svg>
