<svg width="30" height="27" viewBox="0 0 30 27">
<path d="M8.62484 0.25C4.31682 0.25 0.77245 3.49572 0.24121 7.65456C0.166503 7.99491 0.125 8.35185 0.125 8.75031C0.125 13.6064 3.83538 17.9894 7.37975 21.2434C10.9158 24.5058 14.4519 26.6557 14.4519 26.6557L14.9997 26.9961L15.5476 26.6557C15.5476 26.6557 19.0836 24.5058 22.628 21.2434C26.1641 17.9894 29.8744 13.6064 29.8744 8.75031C29.8744 8.35185 29.8329 8.00321 29.7665 7.67117C29.227 3.49572 25.6909 0.25 21.3746 0.25C18.735 0.25 16.5519 1.62798 14.9997 3.52063C13.4475 1.62798 11.2644 0.25 8.62484 0.25ZM8.62484 2.37508C10.9656 2.37508 12.9744 3.63684 14.0867 5.51289L14.9997 7.05689L15.9128 5.51289C17.0251 3.63684 19.0338 2.37508 21.3746 2.37508C24.6367 2.37508 27.2763 4.80729 27.6665 7.97001L27.6831 8.05302C27.7246 8.25224 27.7495 8.47637 27.7495 8.75031C27.7495 10.1366 27.3095 11.581 26.5791 13.0005H17.6227L16.0622 15.3331L11.8123 8.95783L9.12288 13.0005H3.42865C2.68989 11.581 2.24996 10.1366 2.24996 8.75031C2.24996 8.46807 2.27486 8.24394 2.31637 8.05302L2.33297 8.00321V7.9534C2.7314 4.80729 5.3627 2.37508 8.62484 2.37508ZM11.8123 12.7929L16.0622 19.1682L18.7516 15.1255H25.2593C24.0972 16.7608 22.6695 18.3215 21.1837 19.6828C18.0959 22.5301 15.4895 24.1156 14.9997 24.4227C14.51 24.1156 11.9036 22.5301 8.80746 19.6828C7.32994 18.3215 5.90224 16.7608 4.74015 15.1255H10.2518L11.8123 12.7929Z"/>
</svg>
