<svg width="44" height="45" viewBox="0 0 44 45">
<path d="M10 1.28125V4.03125H34.75V1.28125H10ZM22.375 5.40625L15.5 12.2812H21V31.5312H15.5L22.375 38.4062L29.25 31.5312H23.75V12.2812H29.25L22.375 5.40625ZM10 6.78125V9.53125H12.75V6.78125H10ZM32 6.78125V9.53125H34.75V6.78125H32ZM10 12.2812V15.0312H12.75V12.2812H10ZM32 12.2812V15.0312H34.75V12.2812H32ZM10 17.7812V20.5312H12.75V17.7812H10ZM32 17.7812V20.5312H34.75V17.7812H32ZM10 23.2812V26.0312H12.75V23.2812H10ZM32 23.2812V26.0312H34.75V23.2812H32ZM10 28.7812V31.5312H12.75V28.7812H10ZM32 28.7812V31.5312H34.75V28.7812H32ZM10 34.2812V37.0312H12.75V34.2812H10ZM32 34.2812V37.0312H34.75V34.2812H32ZM10 39.7812V42.5312H34.75V39.7812H10Z"/>
</svg>
