<svg width="48" height="48" viewBox="0 0 48 48">
<path d="M6.50146 10C4.02881 10 2.00146 12.0273 2.00146 14.5V32.5C2.00146 34.9727 4.02881 37 6.50146 37H42.5015C44.9741 37 47.0015 34.9727 47.0015 32.5V14.5C47.0015 12.0273 44.9741 10 42.5015 10H6.50146ZM6.50146 13H42.5015C43.3452 13 44.0015 13.6562 44.0015 14.5V32.5C44.0015 33.3438 43.3452 34 42.5015 34H6.50146C5.65771 34 5.00146 33.3438 5.00146 32.5V14.5C5.00146 13.6562 5.65771 13 6.50146 13ZM11.0015 16C9.36084 16 8.00146 17.3594 8.00146 19V28C8.00146 29.6406 9.36084 31 11.0015 31H14.0015C15.6421 31 17.0015 29.6406 17.0015 28V19C17.0015 17.3594 15.6421 16 14.0015 16H11.0015ZM23.0015 16C21.3608 16 20.0015 17.3594 20.0015 19V28C20.0015 29.6406 21.3608 31 23.0015 31H26.0015C27.6421 31 29.0015 29.6406 29.0015 28V19C29.0015 17.3594 27.6421 16 26.0015 16H23.0015ZM32.0015 16C32.0015 17.6406 33.3608 19 35.0015 19H38.0015C39.6421 19 41.0015 17.6406 41.0015 16H32.0015ZM11.0015 19H14.0015V28H11.0015V19ZM23.0015 19H26.0015V28H23.0015V19ZM32.0015 22V25H37.2163C36.2671 26.4531 35.2593 28.5508 35.0835 31H38.0718C38.3999 27.7539 40.7437 25.2578 41.0015 25V22H32.0015Z"/>
</svg>
