<svg width="39" height="39" viewBox="0 0 39 39">
<path d="M4.5 0C2.02734 0 0 2.02734 0 4.5V34.5C0 36.9727 2.02734 39 4.5 39H34.5C36.9727 39 39 36.9727 39 34.5V4.5C39 2.02734 36.9727 0 34.5 0H4.5ZM4.5 3H34.5C35.3438 3 36 3.65625 36 4.5V34.5C36 35.3438 35.3438 36 34.5 36H4.5C3.65625 36 3 35.3438 3 34.5V4.5C3 3.65625 3.65625 3 4.5 3ZM19.5 6C11.4492 6 6.49219 10.5234 6.49219 10.5234C6.16406 10.8164 5.98828 11.2383 6 11.6719C6.01172 12.1055 6.21094 12.5156 6.5625 12.7969L12.5625 17.6719C12.8203 17.8828 13.1602 18 13.5 18H25.5C25.8398 18 26.1797 17.8828 26.4375 17.6719L32.4375 12.7969C32.7891 12.5156 32.9883 12.1055 33 11.6602C33.0117 11.2266 32.8242 10.793 32.4961 10.5C32.4961 10.5 27.4336 6 19.5 6ZM19.5 9C24.5156 9 27.4102 10.6875 28.957 11.7656L24.9609 15H21V12H18V15H14.0391L10.0312 11.7422C11.543 10.6875 14.3789 9 19.5 9Z"/>
</svg>
