<svg width="48" height="49" viewBox="0 0 48 49">
<path d="M24.5005 4.28125C22.9536 4.28125 21.4536 4.48047 20.0239 4.82031L20.7271 7.73828C21.9458 7.44531 23.2114 7.28125 24.5005 7.28125C28.5669 7.28125 32.2583 8.76953 35.1294 11.1953L32.0005 13.2812L41.0005 16.2812V7.28125L37.731 9.46094C34.2505 6.25 29.5981 4.28125 24.5005 4.28125ZM8.00049 7.28125L10.2036 10.5859C6.98096 14.0547 5.00049 18.6836 5.00049 23.7812C5.00049 25.3164 5.17627 26.8047 5.51611 28.2344L8.43408 27.5547C8.15283 26.3477 8.00049 25.082 8.00049 23.7812C8.00049 19.7148 9.47705 16.0234 11.9146 13.1523L14.0005 16.2812L17.0005 7.28125H8.00049ZM43.4849 19.3047L40.5669 19.9844C40.8481 21.2031 41.0005 22.4688 41.0005 23.7812C41.0005 27.8477 39.5122 31.5391 37.0864 34.4102L35.0005 31.2812L32.0005 40.2812H41.0005L38.8208 37.0117C42.0317 33.5312 44.0005 28.8789 44.0005 23.7812C44.0005 22.2461 43.8247 20.7344 43.4849 19.3047ZM8.00049 31.2812V40.2812L11.2817 38.0898C14.7622 41.3125 19.4028 43.2812 24.5005 43.2812C26.0356 43.2812 27.5356 43.1055 28.9771 42.7656L28.2856 39.8477C27.0669 40.1289 25.8013 40.2812 24.5005 40.2812C20.4341 40.2812 16.731 38.8047 13.8599 36.3789L17.0005 34.2812L8.00049 31.2812Z"/>
</svg>
