<svg width="18" height="18" viewBox="0 0 18 18" fill="none" xmlns="http://www.w3.org/2000/svg">
<path d="M2.25 0C2.11871 0.000164511 1.98977 0.0347861 1.87605 0.100404C1.76234 0.166023 1.66784 0.260339 1.602 0.373926C1.53616 0.487512 1.50129 0.616391 1.50087 0.747679C1.50045 0.878967 1.5345 1.00807 1.59961 1.12207L1.93359 1.70801C0.809268 2.14228 0 3.22885 0 4.5C0 11.9373 6.06274 18 13.5 18C14.7572 18 15.8365 17.2095 16.2803 16.1045L16.916 16.4209C17.0303 16.4777 17.1572 16.5044 17.2847 16.4985C17.4122 16.4926 17.5361 16.4542 17.6447 16.387C17.7532 16.3199 17.8428 16.2261 17.905 16.1146C17.9672 16.0031 17.9999 15.8776 18 15.75V14.25C18 14.1495 17.9799 14.05 17.9407 13.9575C17.9016 13.8649 17.8442 13.7812 17.7721 13.7112C17.6999 13.6413 17.6145 13.5865 17.5208 13.5502C17.4271 13.514 17.327 13.4969 17.2266 13.5C17.1186 13.5037 17.0126 13.5307 16.916 13.5791L16.2803 13.8955C15.8365 12.7905 14.7572 12 13.5 12C9.35899 12 6 8.64101 6 4.5C6 3.22885 5.19073 2.14228 4.06641 1.70801L4.40039 1.12207C4.4655 1.00807 4.49955 0.878967 4.49913 0.747679C4.49871 0.616391 4.46384 0.487512 4.398 0.373926C4.33216 0.260339 4.23766 0.166023 4.12395 0.100404C4.01023 0.0347861 3.88129 0.000164511 3.75 0H2.25ZM3 3C3.8362 3 4.5 3.6638 4.5 4.5C4.5 9.45499 8.54501 13.5 13.5 13.5C14.3342 13.5 14.9968 14.1608 15 14.9941V15C15 15.8362 14.3362 16.5 13.5 16.5C6.87626 16.5 1.5 11.1237 1.5 4.5C1.5 3.6638 2.1638 3 3 3Z" fill="#1F74CA"/>
</svg>
