<svg width="27" height="27" viewBox="0 0 27 27">
<path d="M13.5 0C6.0604 0 0 6.0604 0 13.5C0 20.9396 6.0604 27 13.5 27C20.9396 27 27 20.9396 27 13.5C27 6.0604 20.9396 0 13.5 0ZM13.5 2.07692C19.82 2.07692 24.9231 7.17999 24.9231 13.5C24.9231 16.2828 23.9252 18.8302 22.2782 20.8098L6.19021 4.72176C8.16977 3.07482 10.7172 2.07692 13.5 2.07692ZM4.72176 6.19021L20.8098 22.2782C18.8302 23.9252 16.2828 24.9231 13.5 24.9231C7.17999 24.9231 2.07692 19.82 2.07692 13.5C2.07692 10.7172 3.07482 8.16977 4.72176 6.19021Z"/>
</svg>
