<svg width="20" height="21" viewBox="0 0 20 21">
<path d="M14.586 0.605041C13.9297 0.623352 13.2735 0.806457 12.6817 1.17267C10.9122 2.24689 9.60551 3.12579 6.07817 6.80011C2.54497 10.4744 2.0645 11.4815 1.04497 13.2943C0.119186 14.9422 0.400436 17.0418 1.69536 18.3846L4.05669 20.8504L8.62114 16.0897L6.76372 14.1487C6.86333 13.9229 7.03911 13.5689 7.2852 13.1661C7.79497 12.336 8.57426 11.274 9.47661 10.3401C10.3731 9.40021 11.4922 8.49078 12.3946 7.85602C12.8399 7.53864 13.2442 7.29449 13.5079 7.15411C13.5196 7.14801 13.5196 7.14801 13.5313 7.14191L15.3653 9.06451L19.9356 4.30988L19.4082 3.75446L17.5684 1.84406C16.9239 1.17267 16.0977 0.763732 15.2364 0.641662C15.0196 0.611145 14.8028 0.598938 14.586 0.605041ZM15.0372 2.18585C15.5821 2.2652 16.1036 2.52154 16.5079 2.94879L17.8145 4.30988L15.3653 6.85504L14.293 5.732C14.0704 5.50006 13.8243 5.48175 13.6836 5.48175C13.5489 5.48175 13.4551 5.50617 13.3672 5.53058C13.1856 5.58551 13.0274 5.65875 12.8399 5.75031C12.4766 5.93951 12.043 6.21417 11.5508 6.55597C10.5782 7.24567 9.40044 8.20392 8.4102 9.22931C7.42583 10.2608 6.59379 11.3961 6.01958 12.3299C5.73833 12.7938 5.52153 13.2027 5.37504 13.5567C5.29887 13.7337 5.24028 13.8863 5.20512 14.0755C5.18754 14.1671 5.17583 14.2708 5.18754 14.4112C5.1934 14.5516 5.24028 14.7713 5.42778 14.9666L6.50004 16.0897L4.05669 18.6348L2.75004 17.2798C1.93559 16.4254 1.75981 15.1131 2.33989 14.0816C3.377 12.2322 3.65239 11.5303 7.13286 7.90485C10.6192 4.27936 11.6915 3.58356 13.4375 2.51544C13.9356 2.21637 14.4981 2.11261 15.0372 2.18585Z"/>
</svg>
