<svg width="14" height="14" viewBox="0 0 14 14">
<path d="M6.96875 0.0625C3.16284 0.0625 0.0625 3.16284 0.0625 6.96875C0.0625 10.7747 3.16284 13.875 6.96875 13.875C10.7747 13.875 13.875 10.7747 13.875 6.96875C13.875 3.16284 10.7747 0.0625 6.96875 0.0625ZM6.96875 1.125C10.2019 1.125 12.8125 3.7356 12.8125 6.96875C12.8125 10.2019 10.2019 12.8125 6.96875 12.8125C3.7356 12.8125 1.125 10.2019 1.125 6.96875C1.125 3.7356 3.7356 1.125 6.96875 1.125ZM6.4375 2.1875V7.5H9.625V6.4375H7.5V2.1875H6.4375Z"/>
</svg>
