<svg width="21" height="20" viewBox="0 0 21 20">
<path d="M10.25 0.5C6.8075 0.5 3.78087 2.2985 2.04688 5H2V5.0791C1.055 6.5806 0.5 8.3495 0.5 10.25C0.5 12.1505 1.055 13.9194 2 15.4209V15.5H2.04688C3.78237 18.2015 6.8075 20 10.25 20H11V11H20V10.25C20 8.3495 19.445 6.5806 18.5 5.0791V5H18.4531C16.7191 2.2985 13.6925 0.5 10.25 0.5ZM9.5 2.19336V5H7.40527C7.96477 3.5795 8.7215 2.58936 9.5 2.19336ZM11 2.19336C11.7785 2.58936 12.5352 3.5795 13.0947 5H11V2.19336ZM13.6426 2.75879C14.7856 3.27929 15.7846 4.046 16.5781 5H14.6914C14.4049 4.154 14.0521 3.39779 13.6426 2.75879ZM6.85742 2.76172C6.44642 3.39922 6.09359 4.154 5.80859 5H3.92188C4.71537 4.046 5.71442 3.28072 6.85742 2.76172ZM2.9082 6.5H5.38965C5.18565 7.4315 5.06101 8.441 5.02051 9.5H2.03223C2.12973 8.4275 2.4387 7.415 2.9082 6.5ZM6.94531 6.5H9.5V9.5H6.53223C6.57873 8.4065 6.72331 7.3985 6.94531 6.5ZM11 6.5H13.5547C13.7767 7.3985 13.9198 8.4065 13.9678 9.5H11V6.5ZM15.1104 6.5H17.5918C18.0613 7.415 18.3718 8.4275 18.4678 9.5H15.4795C15.4375 8.441 15.3129 7.4315 15.1104 6.5ZM2.03223 11H5.02051C5.06251 12.059 5.18715 13.0685 5.38965 14H2.9082C2.4387 13.085 2.12973 12.0725 2.03223 11ZM6.53223 11H9.5V14H6.94531C6.72331 13.1015 6.57873 12.0935 6.53223 11ZM12.5 12.5L15.5 20L16.9092 17.9844L19.25 20L20.75 18.3184L18.2803 16.2676L20 14.75L12.5 12.5ZM3.92188 15.5H5.80859C6.09509 16.346 6.44792 17.1008 6.85742 17.7383C5.71442 17.2193 4.71537 16.454 3.92188 15.5ZM7.40527 15.5H9.5V18.3066C8.7215 17.9106 7.96477 16.9205 7.40527 15.5Z" />
</svg>
